<svg width="256" height="256" viewBox="0 0 256 256" fill="none" xmlns="http://www.w3.org/2000/svg">
<g clip-path="url(#clip0_3_93)">
<mask id="mask0_3_93" style="mask-type:luminance" maskUnits="userSpaceOnUse" x="65" y="37" width="126" height="126">
<path d="M190.605 37.3757H65.3951V162.585H190.605V37.3757Z" fill="white"/>
</mask>
<g mask="url(#mask0_3_93)">
<path fill-rule="evenodd" clip-rule="evenodd" d="M184.314 74.0836V125.808C184.314 129.701 182.227 133.317 178.752 135.263L133.423 161.125C130.086 163.072 125.775 163.072 122.438 161.125L77.2487 135.263C73.7725 133.317 71.6868 129.701 71.6868 125.808V74.0836C71.6868 70.1903 73.9115 66.5751 77.2487 64.6284L122.438 38.7662C124.246 37.7929 126.053 37.3757 128 37.3757C129.947 37.3757 131.893 37.7929 133.562 38.7662L178.752 64.6284C182.227 66.5751 184.314 70.1903 184.314 74.0836ZM152.737 68.2493C151.73 67.1457 150.403 66.594 148.757 66.594C147.119 66.594 145.827 67.1457 144.881 68.2493C143.935 69.3527 143.462 70.7234 143.462 72.3612V106.596C143.462 109.749 142.74 112.477 141.295 114.781C139.841 117.084 137.949 118.867 135.619 120.128C133.281 121.389 130.759 122.019 128.053 122.019C125.53 122.019 123.148 121.389 120.906 120.128C118.664 118.867 116.868 117.084 115.52 114.781C114.162 112.477 113.483 109.749 113.483 106.596V72.3612C113.483 70.7234 112.901 69.3527 111.736 68.2493C110.563 67.1457 109.253 66.594 107.808 66.594C106.039 66.594 104.59 67.1457 103.46 68.2493C102.321 69.3527 101.752 70.7234 101.752 72.3612V106.596C101.752 111.834 102.873 116.471 105.115 120.509C107.349 124.546 110.436 127.699 114.377 129.967C118.318 132.236 122.876 133.37 128.053 133.37C133.22 133.37 137.756 132.236 141.663 129.967C145.577 127.699 148.652 124.546 150.885 120.509C153.127 116.471 154.248 111.834 154.248 106.596V72.3612C154.248 70.7234 153.744 69.3527 152.737 68.2493Z" fill="white"/>
</g>
<path d="M34.3649 171.452C35.52 171.452 36.4566 171.842 37.1746 172.623C37.8927 173.403 38.2517 174.376 38.2517 175.542V199.846C38.2517 203.551 37.4556 206.839 35.8634 209.711C34.2817 212.574 32.1014 214.811 29.3229 216.423C26.5548 218.037 23.3341 218.843 19.6605 218.843C15.987 218.843 12.7558 218.037 9.96684 216.423C7.16749 214.811 4.97171 212.574 3.37952 209.711C1.79774 206.839 1.00684 203.551 1.00684 199.846V175.542C1.00684 174.376 1.40749 173.403 2.20879 172.623C3.01008 171.842 4.04033 171.452 5.29952 171.452C6.32976 171.452 7.25594 171.842 8.07806 172.623C8.91057 173.403 9.32684 174.376 9.32684 175.542V199.846C9.32684 202.084 9.80554 204.02 10.7629 205.652C11.7307 207.276 13.0055 208.536 14.5873 209.43C16.1795 210.326 17.8706 210.772 19.6605 210.772C21.5858 210.772 23.3756 210.326 25.0302 209.43C26.6849 208.536 28.0273 207.276 29.0575 205.652C30.0878 204.02 30.6029 202.084 30.6029 199.846V175.542C30.6029 174.376 30.936 173.403 31.6019 172.623C32.2785 171.842 33.1994 171.452 34.3649 171.452ZM66.8488 181.91C70.158 181.91 72.6765 182.608 74.4039 184.002C76.121 185.386 77.3021 187.233 77.9473 189.543C78.6029 191.843 78.9307 194.404 78.9307 197.223V214.41C78.9307 215.565 78.5509 216.539 77.7912 217.329C77.0316 218.109 76.069 218.499 74.9034 218.499C73.738 218.499 72.7753 218.109 72.0156 217.329C71.256 216.539 70.8761 215.565 70.8761 214.41V197.223C70.8761 195.746 70.6836 194.413 70.2985 193.227C69.9239 192.041 69.2424 191.089 68.2536 190.371C67.2755 189.653 65.8653 189.294 64.0234 189.294C62.2336 189.294 60.7246 189.653 59.4966 190.371C58.2687 191.089 57.3268 192.041 56.6712 193.227C56.026 194.413 55.7034 195.746 55.7034 197.223V214.41C55.7034 215.565 55.3236 216.539 54.5639 217.329C53.8043 218.109 52.8417 218.499 51.6761 218.499C50.5106 218.499 49.548 218.109 48.7883 217.329C48.0287 216.539 47.6488 215.565 47.6488 214.41V186.687C47.6488 185.521 48.0287 184.548 48.7883 183.768C49.548 182.977 50.5106 182.582 51.6761 182.582C52.8417 182.582 53.8043 182.977 54.5639 183.768C55.3236 184.548 55.7034 185.521 55.7034 186.687V189.575L54.7044 189.372C55.0999 188.612 55.6775 187.795 56.437 186.921C57.1968 186.047 58.0917 185.23 59.1219 184.47C60.1522 183.711 61.3178 183.097 62.6185 182.628C63.9194 182.15 65.3295 181.91 66.8488 181.91ZM95.2429 186.687V214.41C95.2429 215.565 94.8631 216.539 94.1034 217.329C93.3438 218.109 92.3812 218.499 91.2156 218.499C90.0502 218.499 89.0875 218.109 88.3278 217.329C87.5682 216.539 87.1883 215.565 87.1883 214.41V186.687C87.1883 185.521 87.5682 184.548 88.3278 183.768C89.0875 182.977 90.0502 182.582 91.2156 182.582C92.3812 182.582 93.3438 182.977 94.1034 183.768C94.8631 184.548 95.2429 185.521 95.2429 186.687ZM91.1375 178.226C89.6182 178.226 88.5463 177.982 87.9219 177.493C87.2975 176.993 86.9853 176.119 86.9853 174.87V173.59C86.9853 172.3 87.3288 171.415 88.0156 170.937C88.7129 170.468 89.7795 170.234 91.2156 170.234C92.7766 170.234 93.8692 170.484 94.4936 170.983C95.1285 171.473 95.4458 172.342 95.4458 173.59V174.87C95.4458 176.171 95.1077 177.056 94.4312 177.524C93.7653 177.992 92.6673 178.226 91.1375 178.226ZM121.951 168.829C122.94 168.829 123.902 168.965 124.839 169.235C125.776 169.506 126.561 169.943 127.196 170.546C127.82 171.15 128.133 171.941 128.133 172.919C128.133 174.043 127.805 174.928 127.149 175.573C126.504 176.218 125.755 176.541 124.901 176.541C124.506 176.541 123.902 176.442 123.091 176.244C122.289 176.046 121.509 175.947 120.749 175.947C119.625 175.947 118.762 176.192 118.158 176.681C117.554 177.17 117.143 177.743 116.925 178.398C116.696 179.043 116.581 179.611 116.581 180.1V214.41C116.581 215.565 116.202 216.539 115.442 217.329C114.682 218.109 113.72 218.499 112.554 218.499C111.389 218.499 110.426 218.109 109.666 217.329C108.907 216.539 108.527 215.565 108.527 214.41V180.178C108.527 176.993 109.646 174.308 111.883 172.123C114.12 169.927 117.476 168.829 121.951 168.829ZM104.905 183.253H122.685C123.767 183.253 124.662 183.601 125.37 184.299C126.088 184.996 126.447 185.881 126.447 186.952C126.447 188.024 126.088 188.909 125.37 189.606C124.662 190.293 123.767 190.636 122.685 190.636H104.905C103.834 190.636 102.939 190.293 102.22 189.606C101.502 188.909 101.143 188.024 101.143 186.952C101.143 185.881 101.502 184.996 102.22 184.299C102.939 183.601 103.834 183.253 104.905 183.253ZM165.986 200.579C165.986 204.243 165.17 207.474 163.536 210.273C161.901 213.073 159.711 215.252 156.964 216.813C154.206 218.385 151.126 219.17 147.723 219.17C144.33 219.17 141.255 218.385 138.498 216.813C135.75 215.252 133.56 213.073 131.926 210.273C130.292 207.474 129.475 204.243 129.475 200.579C129.475 196.906 130.292 193.675 131.926 190.886C133.56 188.087 135.75 185.891 138.498 184.299C141.255 182.706 144.33 181.91 147.723 181.91C151.126 181.91 154.206 182.706 156.964 184.299C159.711 185.891 161.901 188.087 163.536 190.886C165.17 193.675 165.986 196.906 165.986 200.579ZM157.932 200.579C157.932 198.3 157.474 196.318 156.558 194.632C155.642 192.957 154.409 191.651 152.859 190.714C151.318 189.767 149.607 189.294 147.723 189.294C145.85 189.294 144.138 189.767 142.587 190.714C141.047 191.651 139.819 192.957 138.903 194.632C137.988 196.318 137.53 198.3 137.53 200.579C137.53 202.818 137.988 204.774 138.903 206.449C139.819 208.125 141.047 209.436 142.587 210.382C144.138 211.319 145.85 211.787 147.723 211.787C149.607 211.787 151.318 211.319 152.859 210.382C154.409 209.436 155.642 208.125 156.558 206.449C157.474 204.774 157.932 202.818 157.932 200.579ZM176.726 218.499C175.56 218.499 174.598 218.109 173.838 217.329C173.078 216.539 172.699 215.565 172.699 214.41V186.687C172.699 185.521 173.078 184.548 173.838 183.768C174.598 182.977 175.56 182.582 176.726 182.582C177.892 182.582 178.853 182.977 179.614 183.768C180.374 184.548 180.753 185.521 180.753 186.687V192.993L180.285 188.498C180.773 187.426 181.409 186.474 182.189 185.641C182.981 184.819 183.864 184.127 184.843 183.565C185.831 183.003 186.883 182.587 187.996 182.316C189.12 182.046 190.239 181.91 191.352 181.91C192.695 181.91 193.823 182.295 194.739 183.065C195.665 183.825 196.129 184.72 196.129 185.75C196.129 187.218 195.749 188.279 194.989 188.935C194.22 189.58 193.386 189.903 192.492 189.903C191.649 189.903 190.879 189.746 190.181 189.434C189.484 189.122 188.688 188.966 187.793 188.966C186.992 188.966 186.174 189.159 185.342 189.543C184.52 189.918 183.761 190.506 183.063 191.307C182.377 192.119 181.819 193.118 181.393 194.304C180.967 195.49 180.753 196.891 180.753 198.503V214.41C180.753 215.565 180.374 216.539 179.614 217.329C178.853 218.109 177.892 218.499 176.726 218.499ZM220.683 181.91C224.262 181.91 226.907 182.774 228.613 184.502C230.309 186.229 231.427 188.456 231.969 191.183L230.829 190.574L231.36 189.497C231.902 188.466 232.729 187.363 233.842 186.187C234.966 185.001 236.319 183.992 237.9 183.159C239.493 182.327 241.272 181.91 243.239 181.91C246.466 181.91 248.916 182.608 250.591 184.002C252.266 185.386 253.421 187.233 254.057 189.543C254.681 191.843 254.993 194.404 254.993 197.223V214.41C254.993 215.565 254.614 216.539 253.854 217.329C253.093 218.109 252.132 218.499 250.966 218.499C249.8 218.499 248.838 218.109 248.078 217.329C247.318 216.539 246.939 215.565 246.939 214.41V197.223C246.939 195.746 246.756 194.413 246.392 193.227C246.038 192.041 245.393 191.089 244.457 190.371C243.509 189.653 242.167 189.294 240.429 189.294C238.723 189.294 237.265 189.653 236.059 190.371C234.852 191.089 233.947 192.041 233.342 193.227C232.738 194.413 232.437 195.746 232.437 197.223V214.41C232.437 215.565 232.058 216.539 231.298 217.329C230.537 218.109 229.576 218.499 228.41 218.499C227.244 218.499 226.282 218.109 225.522 217.329C224.762 216.539 224.382 215.565 224.382 214.41V197.223C224.382 195.746 224.206 194.413 223.852 193.227C223.488 192.041 222.837 191.089 221.9 190.371C220.964 189.653 219.621 189.294 217.873 189.294C216.167 189.294 214.709 189.653 213.502 190.371C212.296 191.089 211.39 192.041 210.786 193.227C210.182 194.413 209.881 195.746 209.881 197.223V214.41C209.881 215.565 209.502 216.539 208.741 217.329C207.981 218.109 207.02 218.499 205.854 218.499C204.688 218.499 203.726 218.109 202.966 217.329C202.206 216.539 201.826 215.565 201.826 214.41V186.687C201.826 185.521 202.206 184.548 202.966 183.768C203.726 182.977 204.688 182.582 205.854 182.582C207.02 182.582 207.981 182.977 208.741 183.768C209.502 184.548 209.881 185.521 209.881 186.687V189.575L208.882 189.372C209.277 188.612 209.834 187.795 210.552 186.921C211.27 186.047 212.144 185.23 213.175 184.47C214.205 183.711 215.344 183.097 216.593 182.628C217.853 182.15 219.216 181.91 220.683 181.91Z" fill="#FEFFFF"/>
</g>
<defs>
<clipPath id="clip0_3_93">
<rect width="256" height="182.634" fill="white" transform="translate(0 37)"/>
</clipPath>
</defs>
</svg>
