<svg width="164" height="117" viewBox="0 0 164 117" fill="none" xmlns="http://www.w3.org/2000/svg">
<g clip-path="url(#clip0_3_66)">
<path fill-rule="evenodd" clip-rule="evenodd" d="M118.076 23.7567V56.8927C118.076 59.3869 116.739 61.7028 114.513 62.9499L85.474 79.5179C83.3361 80.765 80.5748 80.765 78.437 79.5179L49.4875 62.9499C47.2606 61.7028 45.9244 59.3869 45.9244 56.8927V23.7567C45.9244 21.2626 47.3496 18.9466 49.4875 17.6995L78.437 1.13149C79.595 0.507963 80.753 0.240736 82 0.240736C83.2471 0.240736 84.4941 0.507963 85.563 1.13149L114.513 17.6995C116.739 18.9466 118.076 21.2626 118.076 23.7567ZM97.8473 20.0191C97.2021 19.3121 96.3521 18.9587 95.2973 18.9587C94.2481 18.9587 93.4205 19.3121 92.8146 20.0191C92.2086 20.726 91.9057 21.6041 91.9057 22.6533V44.5852C91.9057 46.6051 91.4428 48.3528 90.517 49.8284C89.5857 51.304 88.3738 52.4458 86.8813 53.2537C85.3833 54.0616 83.7674 54.4656 82.0337 54.4656C80.4179 54.4656 78.8918 54.0616 77.4555 53.2537C76.0191 52.4458 74.8689 51.304 74.0049 49.8284C73.1353 48.3528 72.7004 46.6051 72.7004 44.5852V22.6533C72.7004 21.6041 72.3273 20.726 71.5811 20.0191C70.8293 19.3121 69.9905 18.9587 69.0647 18.9587C67.9314 18.9587 67.0028 19.3121 66.2791 20.0191C65.5497 20.726 65.185 21.6041 65.185 22.6533V44.5852C65.185 47.9404 65.9031 50.9112 67.3395 53.4977C68.7702 56.0843 70.7479 58.1041 73.2727 59.5572C75.7975 61.0104 78.7178 61.737 82.0337 61.737C85.344 61.737 88.2503 61.0104 90.7527 59.5572C93.2606 58.1041 95.23 56.0843 96.6607 53.4977C98.097 50.9112 98.8152 47.9404 98.8152 44.5852V22.6533C98.8152 21.6041 98.4925 20.726 97.8473 20.0191Z" fill="currentColor"/>
</g>
<path d="M22.015 86.1332C22.755 86.1332 23.355 86.3832 23.815 86.8832C24.275 87.3832 24.505 88.0066 24.505 88.7532V104.323C24.505 106.697 23.995 108.803 22.975 110.643C21.9617 112.477 20.565 113.91 18.785 114.943C17.0117 115.977 14.9484 116.493 12.595 116.493C10.2417 116.493 8.17169 115.977 6.38502 114.943C4.59169 113.91 3.18502 112.477 2.16502 110.643C1.15169 108.803 0.64502 106.697 0.64502 104.323V88.7532C0.64502 88.0066 0.901686 87.3832 1.41502 86.8832C1.92835 86.3832 2.58835 86.1332 3.39502 86.1332C4.05502 86.1332 4.64835 86.3832 5.17502 86.8832C5.70835 87.3832 5.97502 88.0066 5.97502 88.7532V104.323C5.97502 105.757 6.28169 106.997 6.89502 108.043C7.51502 109.083 8.33169 109.89 9.34502 110.463C10.365 111.037 11.4484 111.323 12.595 111.323C13.8284 111.323 14.975 111.037 16.035 110.463C17.095 109.89 17.955 109.083 18.615 108.043C19.275 106.997 19.605 105.757 19.605 104.323V88.7532C19.605 88.0066 19.8184 87.3832 20.245 86.8832C20.6784 86.3832 21.2684 86.1332 22.015 86.1332ZM42.825 92.8332C44.945 92.8332 46.5584 93.2799 47.665 94.1732C48.765 95.0599 49.5217 96.2432 49.935 97.7232C50.355 99.1966 50.565 100.837 50.565 102.643V113.653C50.565 114.393 50.3217 115.017 49.835 115.523C49.3484 116.023 48.7317 116.273 47.985 116.273C47.2384 116.273 46.6217 116.023 46.135 115.523C45.6484 115.017 45.405 114.393 45.405 113.653V102.643C45.405 101.697 45.2817 100.843 45.035 100.083C44.795 99.3232 44.3584 98.7132 43.725 98.2532C43.0984 97.7932 42.195 97.5632 41.015 97.5632C39.8684 97.5632 38.9017 97.7932 38.115 98.2532C37.3284 98.7132 36.725 99.3232 36.305 100.083C35.8917 100.843 35.685 101.697 35.685 102.643V113.653C35.685 114.393 35.4417 115.017 34.955 115.523C34.4684 116.023 33.8517 116.273 33.105 116.273C32.3584 116.273 31.7417 116.023 31.255 115.523C30.7684 115.017 30.525 114.393 30.525 113.653V95.8932C30.525 95.1466 30.7684 94.5232 31.255 94.0232C31.7417 93.5166 32.3584 93.2632 33.105 93.2632C33.8517 93.2632 34.4684 93.5166 34.955 94.0232C35.4417 94.5232 35.685 95.1466 35.685 95.8932V97.7432L35.045 97.6132C35.2984 97.1266 35.6684 96.6032 36.155 96.0432C36.6417 95.4832 37.215 94.9599 37.875 94.4732C38.535 93.9866 39.2817 93.5932 40.115 93.2932C40.9484 92.9866 41.8517 92.8332 42.825 92.8332ZM61.015 95.8932V113.653C61.015 114.393 60.7717 115.017 60.285 115.523C59.7984 116.023 59.1817 116.273 58.435 116.273C57.6884 116.273 57.0717 116.023 56.585 115.523C56.0984 115.017 55.855 114.393 55.855 113.653V95.8932C55.855 95.1466 56.0984 94.5232 56.585 94.0232C57.0717 93.5166 57.6884 93.2632 58.435 93.2632C59.1817 93.2632 59.7984 93.5166 60.285 94.0232C60.7717 94.5232 61.015 95.1466 61.015 95.8932ZM58.385 90.4732C57.4117 90.4732 56.725 90.3166 56.325 90.0032C55.925 89.6832 55.725 89.1232 55.725 88.3232V87.5032C55.725 86.6766 55.945 86.1099 56.385 85.8032C56.8317 85.5032 57.515 85.3532 58.435 85.3532C59.435 85.3532 60.135 85.5132 60.535 85.8332C60.9417 86.1466 61.145 86.7032 61.145 87.5032V88.3232C61.145 89.1566 60.9284 89.7232 60.495 90.0232C60.0684 90.3232 59.365 90.4732 58.385 90.4732ZM78.125 84.4532C78.7583 84.4532 79.375 84.5399 79.975 84.7132C80.575 84.8866 81.0783 85.1666 81.485 85.5532C81.885 85.9399 82.085 86.4466 82.085 87.0732C82.085 87.7932 81.875 88.3599 81.455 88.7732C81.0417 89.1866 80.5617 89.3932 80.015 89.3932C79.7617 89.3932 79.375 89.3299 78.855 89.2032C78.3417 89.0766 77.8417 89.0132 77.355 89.0132C76.635 89.0132 76.0817 89.1699 75.695 89.4832C75.3083 89.7966 75.045 90.1632 74.905 90.5832C74.7583 90.9966 74.685 91.3599 74.685 91.6732V113.653C74.685 114.393 74.4417 115.017 73.955 115.523C73.4684 116.023 72.8517 116.273 72.105 116.273C71.3584 116.273 70.7417 116.023 70.255 115.523C69.7683 115.017 69.525 114.393 69.525 113.653V91.7232C69.525 89.6832 70.2417 87.9632 71.675 86.5632C73.1084 85.1566 75.2583 84.4532 78.125 84.4532ZM67.205 93.6932H78.595C79.2883 93.6932 79.8617 93.9166 80.315 94.3632C80.775 94.8099 81.005 95.3766 81.005 96.0632C81.005 96.7499 80.775 97.3166 80.315 97.7632C79.8617 98.2032 79.2883 98.4232 78.595 98.4232H67.205C66.5184 98.4232 65.945 98.2032 65.485 97.7632C65.025 97.3166 64.795 96.7499 64.795 96.0632C64.795 95.3766 65.025 94.8099 65.485 94.3632C65.945 93.9166 66.5184 93.6932 67.205 93.6932ZM106.335 104.793C106.335 107.14 105.812 109.21 104.765 111.003C103.718 112.797 102.315 114.193 100.555 115.193C98.7883 116.2 96.815 116.703 94.635 116.703C92.4617 116.703 90.4917 116.2 88.725 115.193C86.965 114.193 85.5617 112.797 84.515 111.003C83.4683 109.21 82.945 107.14 82.945 104.793C82.945 102.44 83.4683 100.37 84.515 98.5832C85.5617 96.7899 86.965 95.3832 88.725 94.3632C90.4917 93.3432 92.4617 92.8332 94.635 92.8332C96.815 92.8332 98.7883 93.3432 100.555 94.3632C102.315 95.3832 103.718 96.7899 104.765 98.5832C105.812 100.37 106.335 102.44 106.335 104.793ZM101.175 104.793C101.175 103.333 100.882 102.063 100.295 100.983C99.7083 99.9099 98.9184 99.0732 97.925 98.4732C96.9384 97.8666 95.8417 97.5632 94.635 97.5632C93.435 97.5632 92.3383 97.8666 91.345 98.4732C90.3583 99.0732 89.5717 99.9099 88.985 100.983C88.3983 102.063 88.105 103.333 88.105 104.793C88.105 106.227 88.3983 107.48 88.985 108.553C89.5717 109.627 90.3583 110.467 91.345 111.073C92.3383 111.673 93.435 111.973 94.635 111.973C95.8417 111.973 96.9384 111.673 97.925 111.073C98.9184 110.467 99.7083 109.627 100.295 108.553C100.882 107.48 101.175 106.227 101.175 104.793ZM113.215 116.273C112.468 116.273 111.852 116.023 111.365 115.523C110.878 115.017 110.635 114.393 110.635 113.653V95.8932C110.635 95.1466 110.878 94.5232 111.365 94.0232C111.852 93.5166 112.468 93.2632 113.215 93.2632C113.962 93.2632 114.578 93.5166 115.065 94.0232C115.552 94.5232 115.795 95.1466 115.795 95.8932V99.9332L115.495 97.0532C115.808 96.3666 116.215 95.7566 116.715 95.2232C117.222 94.6966 117.788 94.2532 118.415 93.8932C119.048 93.5332 119.722 93.2666 120.435 93.0932C121.155 92.9199 121.872 92.8332 122.585 92.8332C123.445 92.8332 124.168 93.0799 124.755 93.5732C125.348 94.0599 125.645 94.6332 125.645 95.2932C125.645 96.2332 125.402 96.9132 124.915 97.3332C124.422 97.7466 123.888 97.9532 123.315 97.9532C122.775 97.9532 122.282 97.8532 121.835 97.6532C121.388 97.4532 120.878 97.3532 120.305 97.3532C119.792 97.3532 119.268 97.4766 118.735 97.7232C118.208 97.9632 117.722 98.3399 117.275 98.8532C116.835 99.3732 116.478 100.013 116.205 100.773C115.932 101.533 115.795 102.43 115.795 103.463V113.653C115.795 114.393 115.552 115.017 115.065 115.523C114.578 116.023 113.962 116.273 113.215 116.273ZM141.375 92.8332C143.668 92.8332 145.362 93.3866 146.455 94.4932C147.542 95.5999 148.258 97.0266 148.605 98.7732L147.875 98.3832L148.215 97.6932C148.562 97.0332 149.092 96.3266 149.805 95.5732C150.525 94.8132 151.392 94.1666 152.405 93.6332C153.425 93.0999 154.565 92.8332 155.825 92.8332C157.892 92.8332 159.462 93.2799 160.535 94.1732C161.608 95.0599 162.348 96.2432 162.755 97.7232C163.155 99.1966 163.355 100.837 163.355 102.643V113.653C163.355 114.393 163.112 115.017 162.625 115.523C162.138 116.023 161.522 116.273 160.775 116.273C160.028 116.273 159.412 116.023 158.925 115.523C158.438 115.017 158.195 114.393 158.195 113.653V102.643C158.195 101.697 158.078 100.843 157.845 100.083C157.618 99.3232 157.205 98.7132 156.605 98.2532C155.998 97.7932 155.138 97.5632 154.025 97.5632C152.932 97.5632 151.998 97.7932 151.225 98.2532C150.452 98.7132 149.872 99.3232 149.485 100.083C149.098 100.843 148.905 101.697 148.905 102.643V113.653C148.905 114.393 148.662 115.017 148.175 115.523C147.688 116.023 147.072 116.273 146.325 116.273C145.578 116.273 144.962 116.023 144.475 115.523C143.988 115.017 143.745 114.393 143.745 113.653V102.643C143.745 101.697 143.632 100.843 143.405 100.083C143.172 99.3232 142.755 98.7132 142.155 98.2532C141.555 97.7932 140.695 97.5632 139.575 97.5632C138.482 97.5632 137.548 97.7932 136.775 98.2532C136.002 98.7132 135.422 99.3232 135.035 100.083C134.648 100.843 134.455 101.697 134.455 102.643V113.653C134.455 114.393 134.212 115.017 133.725 115.523C133.238 116.023 132.622 116.273 131.875 116.273C131.128 116.273 130.512 116.023 130.025 115.523C129.538 115.017 129.295 114.393 129.295 113.653V95.8932C129.295 95.1466 129.538 94.5232 130.025 94.0232C130.512 93.5166 131.128 93.2632 131.875 93.2632C132.622 93.2632 133.238 93.5166 133.725 94.0232C134.212 94.5232 134.455 95.1466 134.455 95.8932V97.7432L133.815 97.6132C134.068 97.1266 134.425 96.6032 134.885 96.0432C135.345 95.4832 135.905 94.9599 136.565 94.4732C137.225 93.9866 137.955 93.5932 138.755 93.2932C139.562 92.9866 140.435 92.8332 141.375 92.8332Z" fill="currentColor"/>
<defs>
<clipPath id="clip0_3_66">
<rect width="80.2125" height="80.2125" fill="currentColor" transform="translate(41.8938 0.240723)"/>
</clipPath>
</defs>
</svg>
